<?xml version="1.0" standalone="no"?>
<!DOCTYPE svg PUBLIC "-//W3C//DTD SVG 20010904//EN"
 "http://www.w3.org/TR/2001/REC-SVG-20010904/DTD/svg10.dtd">
<svg version="1.0" xmlns="http://www.w3.org/2000/svg"
 width="128.000000pt" height="128.000000pt" viewBox="0 0 128.000000 128.000000"
 preserveAspectRatio="xMidYMid meet">
<metadata>
Created by potrace 1.14, written by Peter Selinger 2001-2017
</metadata>
<g transform="translate(0.000000,128.000000) scale(0.100000,-0.100000)"
fill="#000000" stroke="none">
<path d="M511 1134 c-174 -47 -314 -188 -366 -368 -23 -79 -17 -217 14 -305
102 -295 452 -429 732 -280 119 64 227 200 256 324 9 42 15 145 8 145 -4 0
-80 -73 -169 -162 -91 -91 -176 -167 -195 -175 -101 -43 -207 45 -193 158 4
35 60 98 92 105 64 14 137 -5 158 -42 7 -12 24 0 90 63 45 43 82 82 82 86 0 7
-179 187 -185 187 -2 0 -68 -65 -148 -144 -157 -157 -176 -168 -253 -147 -84
23 -125 111 -91 193 36 87 166 108 228 37 l19 -23 150 150 c169 168 167 159
52 194 -77 24 -201 26 -281 4z"/>
</g>
</svg>
